<?xml version="1.0" standalone="no"?>
<!DOCTYPE svg PUBLIC "-//W3C//DTD SVG 20010904//EN"
 "http://www.w3.org/TR/2001/REC-SVG-20010904/DTD/svg10.dtd">
<svg version="1.0" xmlns="http://www.w3.org/2000/svg"
 width="70.000000pt" height="70.000000pt" viewBox="0 0 70.000000 70.000000"
 preserveAspectRatio="xMidYMid meet">
<metadata>
Created by potrace 1.11, written by Peter Selinger 2001-2013
</metadata>
<g transform="translate(0.000000,70.000000) scale(0.100000,-0.100000)"
fill="#000000" stroke="none">
<path d="M240 638 c-44 -16 -53 -29 -34 -49 13 -15 20 -32 23 -61 1 -10 34 -2
83 20 74 32 100 74 56 88 -34 10 -102 12 -128 2z"/>
<path d="M480 585 c-90 -55 -96 -61 -84 -76 6 -8 10 -22 8 -32 -1 -10 2 -32 8
-48 9 -26 11 -27 25 -13 12 11 18 12 29 3 17 -14 18 -39 2 -39 -7 0 18 -20 56
-44 57 -37 76 -44 110 -41 58 4 58 4 51 14 -3 5 -1 12 4 16 14 8 5 135 -11
165 -22 43 -53 77 -93 104 -21 14 -41 26 -44 25 -3 -1 -31 -16 -61 -34z"/>
<path d="M103 579 c-18 -12 -33 -25 -33 -29 0 -7 34 -39 129 -119 30 -26 43
-18 26 17 -7 15 -25 55 -41 90 -16 34 -33 62 -39 62 -5 0 -25 -10 -42 -21z"/>
<path d="M52 498 c-20 -39 -42 -110 -37 -118 3 -5 0 -12 -6 -16 -8 -4 -7 -9 2
-15 11 -7 11 -9 1 -9 -8 0 -10 -5 -6 -12 4 -7 8 -24 9 -38 2 -30 29 -86 59
-118 29 -33 88 -61 141 -68 41 -6 45 -5 56 20 7 14 16 26 21 26 5 0 6 5 3 10
-3 6 -1 10 4 10 6 0 11 -7 11 -16 0 -8 4 -12 10 -9 16 10 5 58 -24 108 -15 25
-25 50 -23 54 3 5 -15 28 -39 53 -24 24 -44 50 -44 57 0 7 -7 13 -15 13 -8 0
-35 20 -61 45 -25 25 -47 45 -48 45 -2 0 -8 -10 -14 -22z"/>
<path d="M300 309 c0 -4 9 -26 20 -47 11 -22 23 -64 27 -93 6 -57 16 -78 36
-75 24 3 77 29 78 37 1 5 2 15 3 22 1 6 -1 19 -5 28 -12 23 -1 29 29 18 34
-13 56 -4 44 18 -6 9 -18 17 -28 19 -46 4 -78 14 -94 29 -9 8 -22 15 -28 15
-7 0 -12 4 -12 9 0 5 -10 13 -22 17 -36 12 -48 13 -48 3z"/>
</g>
</svg>
